<?xml version="1.0" encoding="iso-8859-1"?>
<!-- Uploaded to: SVG Repo, www.svgrepo.com, Generator: SVG Repo Mixer Tools -->
<svg version="1.1" id="Layer_1" xmlns="http://www.w3.org/2000/svg" xmlns:xlink="http://www.w3.org/1999/xlink" 
	 viewBox="0 0 512 512" xml:space="preserve">
<g>
	<rect x="248.88" y="230.71" style="fill:#999999;" width="13.472" height="53.712"/>
	<polygon style="fill:#999999;" points="93.944,353.662 80.464,353.662 80.464,281.502 430.784,281.502 430.784,353.662 
		417.312,353.526 417.312,294.974 93.944,294.974 	"/>
</g>
<rect x="8" y="350.126" style="fill:#FFFFFF;" width="159.16" height="105.264"/>
<path style="fill:#E21B1B;" d="M159.16,358.134v89.264H16v-89.264H159.16 M175.16,342.134H0v121.264h175.16V342.134z"/>
<rect x="344.8" y="350.126" style="fill:#FFFFFF;" width="159.16" height="105.264"/>
<path style="fill:#E21B1B;" d="M496,358.134v89.264H352.84v-89.264H496 M512,342.134H336.84v121.264H512V342.134z"/>
<path style="fill:#FFFFFF;" d="M255.864,226.862c-62.432,0.904-120.312-32.56-150.688-87.112
	c30.568-54.496,88.488-87.912,150.96-87.112c62.408-0.84,120.256,32.6,150.68,87.096
	C376.256,194.23,318.344,227.662,255.864,226.862z"/>
<path style="fill:#999999;" d="M256.128,56.63c60.336-1.4,116.536,30.544,146.192,83.104
	c-29.792,52.552-86.048,84.488-146.448,83.128c-60.336,1.4-116.536-30.544-146.192-83.104
	C139.472,87.206,195.728,55.27,256.128,56.63 M256.128,48.63c-64.784-1.12-124.768,34.04-155.44,91.112
	c30.528,57.096,90.464,92.288,155.2,91.112c64.784,1.12,124.768-34.04,155.44-91.112C380.8,82.638,320.864,47.454,256.128,48.63z"/>
<circle style="fill:#E21B1B;" cx="256" cy="139.75" r="57.856"/>
<circle cx="256" cy="139.75" r="48.72"/>
<circle style="fill:#FFFFFF;" cx="256" cy="139.75" r="32.984"/>
<circle cx="256" cy="139.75" r="16.376"/>
</svg>