<!DOCTYPE svg PUBLIC "-//W3C//DTD SVG 1.1//EN" "http://www.w3.org/Graphics/SVG/1.1/DTD/svg11.dtd">
<!-- Uploaded to: SVG Repo, www.svgrepo.com, Transformed by: SVG Repo Mixer Tools -->
<svg fill="#f9a006" width="800px" height="800px" viewBox="0 0 512 512" version="1.1" xml:space="preserve" xmlns="http://www.w3.org/2000/svg" xmlns:xlink="http://www.w3.org/1999/xlink" stroke="#f9a006" transform="rotate(0)matrix(1, 0, 0, 1, 0, 0)">
<g id="SVGRepo_bgCarrier" stroke-width="0"/>
<g id="SVGRepo_tracerCarrier" stroke-linecap="round" stroke-linejoin="round" stroke="#000000" stroke-width="2.048"> <g id="A_-_140_x2C__time_x2C__file_x2C__report_x2C__business"> <g> <path d="M176.699,143.751c-0.002-0.044,0.008-0.086,0.008-0.13l-0.712-22.589l-37.005,37.031l38.135-1.162L176.699,143.751z"/> <path d="M56.505,318.412c1.615,0.915,4.198,1.367,7.867,1.367c2.29,0,4.699-0.17,7.028-0.335c0.282-0.021,0.561-0.04,0.838-0.059 c-0.147-0.304-0.296-0.611-0.445-0.921c-2.247-4.638-5.043-10.411-8.23-12.246c-1.448-0.834-3.049-1.273-4.632-1.273 c-2.623,0-4.876,1.208-6.026,3.232C50.956,311.553,52.577,316.135,56.505,318.412z"/> <path d="M298.032,140.366c-0.246-2.687-0.379-5.408-0.379-8.158c0-1.356,0.036-2.703,0.096-4.045 c0.004-0.073,0.005-0.147,0.009-0.22c0.065-1.372,0.164-2.734,0.293-4.089c0-0.013,0.002-0.025,0.004-0.037 c0.262-2.789,0.656-5.54,1.174-8.247H182.386l0.782,24.795H298.032z"/> <polygon points="134.105,289.285 134.105,303.147 134.105,332.836 134.105,372.673 134.105,402.361 134.105,416.224 134.105,440.664 157.423,440.664 157.423,164.065 134.105,164.775 "/> <path d="M119.093,365.263l4.206-7.281l-8.115,2.181C116.159,362.122,117.491,363.851,119.093,365.263z"/> <path d="M96.697,410.59c-0.295,0.145-0.594,0.29-0.895,0.437c-4.62,2.25-10.368,5.052-12.241,8.28 c-1.223,2.101-1.588,4.545-1.005,6.71c0.467,1.731,1.508,3.13,2.934,3.942c0.961,0.563,1.995,0.837,3.103,0.837 c2.766,0,5.561-1.753,7.121-4.469c1.9-3.229,1.435-9.567,1.062-14.66C96.75,411.305,96.723,410.945,96.697,410.59z"/> <path d="M109.821,394.433c5.442,2.653,11.446,4.262,17.724,4.593v-23.203c-2.119-0.229-4.164-0.751-6.094-1.527L109.821,394.433z"/> <path d="M78.061,322.545c-0.018,0.033-0.035,0.065-0.054,0.099l-0.083,0.146c-0.051,0.09-0.097,0.173-0.146,0.259 c-0.179,0.315-0.347,0.635-0.52,0.952c-0.003,0.008-0.008,0.016-0.013,0.023c-0.001,0.002-0.002,0.004-0.003,0.006 c-7.105,13.04-9.125,27.955-5.745,42.385c0.076,0.211,0.138,0.429,0.17,0.655c0.007,0.056,0.021,0.121,0.032,0.182 c0.089,0.358,0.166,0.719,0.262,1.076l0.114,0.399c4.118,15.012,13.743,27.401,26.331,35.209c0.037,0.02,0.078,0.027,0.116,0.049 c0.297,0.169,0.573,0.339,0.848,0.508c0.196,0.121,0.391,0.241,0.599,0.362c0.424,0.217,0.848,0.469,1.261,0.721 c7.936,4.345,16.897,6.941,26.315,7.324v-7.311c-22.82-1.055-42.563-16.833-48.513-39.103c0-0.001,0-0.002,0-0.003 c0-0.001,0-0.001,0-0.002s-0.001-0.003-0.001-0.004c-3.72-13.856-1.542-27.929,4.975-39.56c0.07-0.221,0.162-0.437,0.282-0.645 c0.121-0.209,0.264-0.396,0.419-0.566c6.805-11.433,17.877-20.341,31.709-24.061c0.001-0.001,0.002-0.001,0.003-0.002 c3.648-0.972,7.38-1.543,11.127-1.72v-7.314c-4.443,0.184-8.79,0.864-12.955,2.032C99.069,298.775,86.117,308.679,78.061,322.545z "/> <path d="M84.641,361.579l22.402-6.021c-0.481-3.898,0.038-7.823,1.516-11.468l-20.071-11.602 C84.208,341.27,82.665,351.417,84.641,361.579z"/> <path d="M113.464,353.832l8.156-2.191l-7.306-4.223C113.608,349.484,113.32,351.657,113.464,353.832z"/> <path d="M122.715,337.838c-1.951,0.954-3.681,2.274-5.112,3.903l7.285,4.211L122.715,337.838z"/> <path d="M397.626,442.049v-33.451h-25.028v33.451c0,1.811-1.469,3.279-3.279,3.279h-60.435c-1.812,0-3.28-1.469-3.28-3.279 v-33.451h-25.021v33.451c0,1.811-1.468,3.279-3.279,3.279h-60.48c-1.812,0-3.28-1.469-3.28-3.279v-36.731 c0-1.811,1.468-3.279,3.28-3.279h26.981v-45.875c0-1.812,1.468-3.28,3.28-3.28h88.741v-17.055 c-12.793-1.619-22.721-12.563-22.721-25.788s9.928-24.17,22.721-25.789v-13.497h-26.94c-1.812,0-3.28-1.469-3.28-3.28v-36.808 c0-1.811,1.469-3.28,3.28-3.28h60.435c1.811,0,3.279,1.469,3.279,3.28v36.808c0,1.812-1.469,3.28-3.279,3.28h-26.935v13.497 c12.793,1.619,22.722,12.563,22.722,25.789s-9.929,24.169-22.722,25.788v17.055h64.593V218.387 c-5.827,1.404-11.875,2.232-18.084,2.415c-0.031,0.001-0.064,0.002-0.098,0.003c-0.846,0.024-1.693,0.04-2.545,0.04 c-1.267,0-2.525-0.033-3.779-0.086c-0.127-0.005-0.258-0.009-0.386-0.015c-1.249-0.059-2.489-0.146-3.726-0.255 c-0.085-0.007-0.169-0.015-0.254-0.022c-40.152-3.679-72.637-34.272-79.225-73.542H183.375l0.408,12.937l0.004,0.111l0,0v0.003 c0.001,0.071-0.012,0.141-0.015,0.212c-0.005,0.145-0.006,0.29-0.029,0.432c-0.007,0.04-0.023,0.076-0.031,0.115 c-0.035,0.171-0.074,0.341-0.136,0.503c-0.024,0.066-0.064,0.125-0.093,0.189c-0.059,0.13-0.114,0.263-0.19,0.384 c-0.053,0.084-0.123,0.159-0.184,0.238c-0.069,0.092-0.131,0.189-0.21,0.273v0.001h-0.001c-0.039,0.041-0.086,0.072-0.126,0.111 c-0.584,0.561-1.35,0.896-2.164,0.921l-16.626,0.508v280.078v17.849h242.994v-16.464h-6.07 C399.095,445.328,397.626,443.859,397.626,442.049z M183.881,191.867h66.871c1.812,0,3.28,1.469,3.28,3.28 c0,1.812-1.468,3.28-3.28,3.28h-66.871c-1.811,0-3.279-1.468-3.279-3.28C180.602,193.335,182.07,191.867,183.881,191.867z M183.881,220.57h66.871c1.812,0,3.28,1.468,3.28,3.28c0,1.811-1.468,3.28-3.28,3.28h-66.871c-1.811,0-3.279-1.469-3.279-3.28 C180.602,222.038,182.07,220.57,183.881,220.57z M183.881,234.885h94.856c1.812,0,3.28,1.469,3.28,3.28 c0,1.812-1.469,3.28-3.28,3.28h-94.856c-1.811,0-3.279-1.468-3.279-3.28C180.602,236.354,182.07,234.885,183.881,234.885z M183.881,249.199h94.856c1.812,0,3.28,1.468,3.28,3.28c0,1.811-1.469,3.28-3.28,3.28h-94.856c-1.811,0-3.279-1.469-3.279-3.28 C180.602,250.667,182.07,249.199,183.881,249.199z M183.881,263.514h94.856c1.812,0,3.28,1.468,3.28,3.279 c0,1.813-1.469,3.28-3.28,3.28h-94.856c-1.811,0-3.279-1.468-3.279-3.28C180.602,264.981,182.07,263.514,183.881,263.514z M180.602,281.105c0-1.811,1.469-3.279,3.279-3.279h47.449c1.811,0,3.28,1.469,3.28,3.279c0,1.813-1.469,3.28-3.28,3.28h-47.449 C182.07,284.386,180.602,282.918,180.602,281.105z"/> <path d="M127.332,329.723c0.072-0.009,0.142-0.021,0.213-0.029v-23.207c-2.088,0.112-4.168,0.381-6.227,0.776L127.332,329.723z"/> <path d="M104.144,391.146l11.626-20.129c-3.015-2.371-5.444-5.492-7.004-9.13l-22.434,6.029 C89.658,377.576,96.014,385.642,104.144,391.146z"/> <path d="M127.545,369.225v-5.479l-2.771,4.797C125.671,368.845,126.595,369.08,127.545,369.225z"/> <path d="M91.769,326.81l20.097,11.616c2.414-3.084,5.537-5.472,9.135-6.987l-6.019-22.48 C105.218,312.333,97.223,318.732,91.769,326.81z"/> <path d="M341.459,161.857l-8.775,5.075c4.895,7.534,11.328,13.972,18.855,18.871l5.053-8.8c0.902-1.571,2.907-2.113,4.477-1.211 c1.571,0.902,2.113,2.906,1.211,4.478l-5.065,8.823c8.718,4.474,18.583,7.017,29.036,7.017c10.439,0,20.294-2.536,29.004-7 l-5.075-8.839c-0.902-1.571-0.359-3.575,1.211-4.478c1.569-0.901,3.575-0.361,4.478,1.211l5.063,8.819 c7.542-4.902,13.987-11.35,18.889-18.895l-8.818-5.064c-1.57-0.902-2.113-2.907-1.211-4.478c0.902-1.571,2.907-2.113,4.478-1.21 l8.837,5.074c3.997-7.803,6.454-16.522,6.922-25.761h-10.195c-1.812,0-3.28-1.469-3.28-3.28c0-1.812,1.469-3.28,3.28-3.28h10.195 c-0.468-9.213-2.919-17.908-6.903-25.692l-8.855,5.083c-0.516,0.295-1.076,0.436-1.631,0.436c-1.135,0-2.24-0.591-2.847-1.648 c-0.902-1.57-0.359-3.575,1.212-4.477l8.836-5.072c-4.898-7.539-11.339-13.981-18.879-18.881l-5.096,8.821 c-0.608,1.051-1.71,1.639-2.843,1.639c-0.558,0-1.121-0.142-1.638-0.44c-1.569-0.906-2.106-2.912-1.199-4.48l5.1-8.826 c-7.801-3.998-16.516-6.454-25.754-6.923v3.454v6.742c0,1.811-1.469,3.28-3.279,3.28s-3.279-1.469-3.279-3.28v-6.742v-3.454 c-9.25,0.469-17.977,2.932-25.785,6.938l5.091,8.81c0.905,1.568,0.368,3.574-1.2,4.48c-0.517,0.298-1.08,0.44-1.637,0.44 c-1.134,0-2.236-0.587-2.844-1.639l-5.085-8.802c-7.525,4.896-13.954,11.329-18.845,18.856l8.793,5.082 c1.568,0.907,2.104,2.913,1.199,4.481c-0.608,1.051-1.71,1.639-2.843,1.639c-0.558,0-1.122-0.142-1.638-0.441l-8.797-5.083 c-3.988,7.785-6.439,16.481-6.907,25.698h10.188c1.811,0,3.279,1.468,3.279,3.28c0,1.811-1.469,3.28-3.279,3.28h-10.188 c0.468,9.242,2.925,17.962,6.925,25.768l8.777-5.076c1.57-0.907,3.574-0.369,4.482,1.198 C343.563,158.945,343.027,160.952,341.459,161.857z M351.468,107.755c1.083-1.452,3.138-1.751,4.589-0.669l25.204,18.796 c1.376-1.076,3.106-1.724,4.989-1.724c1.743,0,3.355,0.558,4.678,1.495l17.967-10.583c1.559-0.919,3.571-0.4,4.49,1.162 c0.92,1.56,0.4,3.571-1.16,4.49l-17.944,10.571c0.034,0.301,0.056,0.606,0.056,0.916c0,4.557-3.552,8.126-8.086,8.126 c-4.538,0-8.094-3.57-8.094-8.126c0-0.149,0.014-0.294,0.022-0.442l-26.042-19.422 C350.684,111.262,350.385,109.206,351.468,107.755z"/> <path d="M112.185,287.719c0.21,0.181,0.419,0.36,0.626,0.54c0.113-0.331,0.229-0.665,0.346-1.002 c1.68-4.851,3.771-10.889,2.803-14.453c-0.985-3.712-4.077-6.393-7.356-6.393c-0.527,0-1.051,0.071-1.56,0.212 c-1.618,0.424-2.979,1.495-3.874,3.03c-1.13,1.938-1.42,4.399-0.796,6.751C103.335,280.089,108.242,284.319,112.185,287.719z"/> <path d="M386.25,133.775c0.885,0,1.527-0.659,1.527-1.567c0-0.227-0.049-0.437-0.135-0.625c-0.029-0.046-0.064-0.087-0.092-0.134 c-0.022-0.038-0.033-0.079-0.054-0.117c-0.272-0.375-0.72-0.614-1.247-0.614c-0.619,0-1.124,0.324-1.37,0.812 c-0.034,0.094-0.062,0.19-0.106,0.282c-0.034,0.126-0.059,0.257-0.059,0.397C384.715,133.116,385.361,133.775,386.25,133.775z"/> <rect height="42.595" width="14.344" x="413.537" y="359.443"/> <path d="M304.97,143.174c0.002,0.013,0.007,0.024,0.009,0.038c5.064,37.958,36.051,67.171,73.594,70.711 c0.064,0.005,0.129,0.011,0.193,0.017c1.185,0.109,2.375,0.192,3.571,0.249c0.099,0.004,0.198,0.007,0.296,0.012 c1.2,0.053,2.406,0.084,3.617,0.084c0.908,0,1.82-0.019,2.733-0.05c0.09-0.004,0.179-0.007,0.271-0.011 c6.639-0.257,13.383-1.361,20.094-3.294c0.088-0.025,0.177-0.026,0.266-0.045c33.866-10.094,58.633-41.542,58.633-78.677 c0-45.215-36.783-82-81.996-82c-38.561,0-70.986,26.733-79.719,62.629c-0.012,0.078-0.01,0.156-0.029,0.232 c-0.939,3.843-1.59,7.771-1.952,11.743c-0.007,0.089-0.016,0.177-0.022,0.266c-0.059,0.65-0.105,1.303-0.146,1.957 c-0.011,0.168-0.022,0.336-0.033,0.506c-0.033,0.598-0.059,1.197-0.079,1.796c-0.007,0.188-0.017,0.376-0.021,0.564 c-0.022,0.768-0.035,1.538-0.035,2.307c0,3.413,0.236,6.904,0.721,10.662C304.958,142.967,304.955,143.074,304.97,143.174z M386.25,61.825c38.829,0,70.42,31.573,70.42,70.383c0,38.852-31.591,70.46-70.42,70.46c-12.74,0-24.689-3.42-35.012-9.365 c-0.059-0.029-0.117-0.053-0.174-0.086c-0.041-0.022-0.07-0.053-0.108-0.077c-20.981-12.214-35.126-34.944-35.126-60.933 C315.83,93.398,347.42,61.825,386.25,61.825z"/> <path d="M52.233,366.661c-0.787,0-1.49,0.081-2.088,0.243c-4.393,1.185-7.172,5.204-6.194,8.958 c0.81,2.954,3.758,4.965,7.327,4.965c0.833,0,1.673-0.113,2.498-0.336c3.669-0.997,7.94-5.974,11.372-9.972 c0.14-0.163,0.279-0.325,0.417-0.486c-0.438-0.148-0.882-0.3-1.33-0.452C60.228,368.212,55.687,366.661,52.233,366.661z"/> <polygon points="410.257,408.598 404.186,408.598 404.186,438.769 410.257,438.769 458.101,438.769 458.101,408.598 431.16,408.598 "/> <path d="M366.038,264.194v-30.249h-53.874v30.249h23.66v-5.732c0-1.811,1.469-3.279,3.279-3.279c1.812,0,3.28,1.468,3.28,3.279 v5.732H366.038z"/> <polygon points="308.884,402.038 335.824,402.038 335.824,359.443 250.363,359.443 250.363,402.038 277.303,402.038 "/> <polygon points="220.102,408.598 220.102,438.769 274.022,438.769 274.022,408.598 247.083,408.598 "/> <path d="M366.038,408.598h-23.654v15.122c0,1.812-1.469,3.28-3.28,3.28c-1.811,0-3.279-1.469-3.279-3.28v-15.122h-23.66v30.171 h53.874V408.598z"/> <path d="M319.663,310.04c0,9.601,7.001,17.577,16.161,19.144v-13.918c0-1.812,1.469-3.279,3.279-3.279 c1.812,0,3.28,1.468,3.28,3.279v13.918c9.161-1.566,16.162-9.543,16.162-19.144c0-10.722-8.722-19.443-19.442-19.443 C328.385,290.597,319.663,299.318,319.663,310.04z"/> <polygon points="400.906,402.038 406.977,402.038 406.977,359.443 342.384,359.443 342.384,402.038 369.318,402.038 "/> </g> </g> <g id="Layer_1"/> </g>
<g id="SVGRepo_iconCarrier"> <g id="A_-_140_x2C__time_x2C__file_x2C__report_x2C__business"> <g> <path d="M176.699,143.751c-0.002-0.044,0.008-0.086,0.008-0.13l-0.712-22.589l-37.005,37.031l38.135-1.162L176.699,143.751z"/> <path d="M56.505,318.412c1.615,0.915,4.198,1.367,7.867,1.367c2.29,0,4.699-0.17,7.028-0.335c0.282-0.021,0.561-0.04,0.838-0.059 c-0.147-0.304-0.296-0.611-0.445-0.921c-2.247-4.638-5.043-10.411-8.23-12.246c-1.448-0.834-3.049-1.273-4.632-1.273 c-2.623,0-4.876,1.208-6.026,3.232C50.956,311.553,52.577,316.135,56.505,318.412z"/> <path d="M298.032,140.366c-0.246-2.687-0.379-5.408-0.379-8.158c0-1.356,0.036-2.703,0.096-4.045 c0.004-0.073,0.005-0.147,0.009-0.22c0.065-1.372,0.164-2.734,0.293-4.089c0-0.013,0.002-0.025,0.004-0.037 c0.262-2.789,0.656-5.54,1.174-8.247H182.386l0.782,24.795H298.032z"/> <polygon points="134.105,289.285 134.105,303.147 134.105,332.836 134.105,372.673 134.105,402.361 134.105,416.224 134.105,440.664 157.423,440.664 157.423,164.065 134.105,164.775 "/> <path d="M119.093,365.263l4.206-7.281l-8.115,2.181C116.159,362.122,117.491,363.851,119.093,365.263z"/> <path d="M96.697,410.59c-0.295,0.145-0.594,0.29-0.895,0.437c-4.62,2.25-10.368,5.052-12.241,8.28 c-1.223,2.101-1.588,4.545-1.005,6.71c0.467,1.731,1.508,3.13,2.934,3.942c0.961,0.563,1.995,0.837,3.103,0.837 c2.766,0,5.561-1.753,7.121-4.469c1.9-3.229,1.435-9.567,1.062-14.66C96.75,411.305,96.723,410.945,96.697,410.59z"/> <path d="M109.821,394.433c5.442,2.653,11.446,4.262,17.724,4.593v-23.203c-2.119-0.229-4.164-0.751-6.094-1.527L109.821,394.433z"/> <path d="M78.061,322.545c-0.018,0.033-0.035,0.065-0.054,0.099l-0.083,0.146c-0.051,0.09-0.097,0.173-0.146,0.259 c-0.179,0.315-0.347,0.635-0.52,0.952c-0.003,0.008-0.008,0.016-0.013,0.023c-0.001,0.002-0.002,0.004-0.003,0.006 c-7.105,13.04-9.125,27.955-5.745,42.385c0.076,0.211,0.138,0.429,0.17,0.655c0.007,0.056,0.021,0.121,0.032,0.182 c0.089,0.358,0.166,0.719,0.262,1.076l0.114,0.399c4.118,15.012,13.743,27.401,26.331,35.209c0.037,0.02,0.078,0.027,0.116,0.049 c0.297,0.169,0.573,0.339,0.848,0.508c0.196,0.121,0.391,0.241,0.599,0.362c0.424,0.217,0.848,0.469,1.261,0.721 c7.936,4.345,16.897,6.941,26.315,7.324v-7.311c-22.82-1.055-42.563-16.833-48.513-39.103c0-0.001,0-0.002,0-0.003 c0-0.001,0-0.001,0-0.002s-0.001-0.003-0.001-0.004c-3.72-13.856-1.542-27.929,4.975-39.56c0.07-0.221,0.162-0.437,0.282-0.645 c0.121-0.209,0.264-0.396,0.419-0.566c6.805-11.433,17.877-20.341,31.709-24.061c0.001-0.001,0.002-0.001,0.003-0.002 c3.648-0.972,7.38-1.543,11.127-1.72v-7.314c-4.443,0.184-8.79,0.864-12.955,2.032C99.069,298.775,86.117,308.679,78.061,322.545z "/> <path d="M84.641,361.579l22.402-6.021c-0.481-3.898,0.038-7.823,1.516-11.468l-20.071-11.602 C84.208,341.27,82.665,351.417,84.641,361.579z"/> <path d="M113.464,353.832l8.156-2.191l-7.306-4.223C113.608,349.484,113.32,351.657,113.464,353.832z"/> <path d="M122.715,337.838c-1.951,0.954-3.681,2.274-5.112,3.903l7.285,4.211L122.715,337.838z"/> <path d="M397.626,442.049v-33.451h-25.028v33.451c0,1.811-1.469,3.279-3.279,3.279h-60.435c-1.812,0-3.28-1.469-3.28-3.279 v-33.451h-25.021v33.451c0,1.811-1.468,3.279-3.279,3.279h-60.48c-1.812,0-3.28-1.469-3.28-3.279v-36.731 c0-1.811,1.468-3.279,3.28-3.279h26.981v-45.875c0-1.812,1.468-3.28,3.28-3.28h88.741v-17.055 c-12.793-1.619-22.721-12.563-22.721-25.788s9.928-24.17,22.721-25.789v-13.497h-26.94c-1.812,0-3.28-1.469-3.28-3.28v-36.808 c0-1.811,1.469-3.28,3.28-3.28h60.435c1.811,0,3.279,1.469,3.279,3.28v36.808c0,1.812-1.469,3.28-3.279,3.28h-26.935v13.497 c12.793,1.619,22.722,12.563,22.722,25.789s-9.929,24.169-22.722,25.788v17.055h64.593V218.387 c-5.827,1.404-11.875,2.232-18.084,2.415c-0.031,0.001-0.064,0.002-0.098,0.003c-0.846,0.024-1.693,0.04-2.545,0.04 c-1.267,0-2.525-0.033-3.779-0.086c-0.127-0.005-0.258-0.009-0.386-0.015c-1.249-0.059-2.489-0.146-3.726-0.255 c-0.085-0.007-0.169-0.015-0.254-0.022c-40.152-3.679-72.637-34.272-79.225-73.542H183.375l0.408,12.937l0.004,0.111l0,0v0.003 c0.001,0.071-0.012,0.141-0.015,0.212c-0.005,0.145-0.006,0.29-0.029,0.432c-0.007,0.04-0.023,0.076-0.031,0.115 c-0.035,0.171-0.074,0.341-0.136,0.503c-0.024,0.066-0.064,0.125-0.093,0.189c-0.059,0.13-0.114,0.263-0.19,0.384 c-0.053,0.084-0.123,0.159-0.184,0.238c-0.069,0.092-0.131,0.189-0.21,0.273v0.001h-0.001c-0.039,0.041-0.086,0.072-0.126,0.111 c-0.584,0.561-1.35,0.896-2.164,0.921l-16.626,0.508v280.078v17.849h242.994v-16.464h-6.07 C399.095,445.328,397.626,443.859,397.626,442.049z M183.881,191.867h66.871c1.812,0,3.28,1.469,3.28,3.28 c0,1.812-1.468,3.28-3.28,3.28h-66.871c-1.811,0-3.279-1.468-3.279-3.28C180.602,193.335,182.07,191.867,183.881,191.867z M183.881,220.57h66.871c1.812,0,3.28,1.468,3.28,3.28c0,1.811-1.468,3.28-3.28,3.28h-66.871c-1.811,0-3.279-1.469-3.279-3.28 C180.602,222.038,182.07,220.57,183.881,220.57z M183.881,234.885h94.856c1.812,0,3.28,1.469,3.28,3.28 c0,1.812-1.469,3.28-3.28,3.28h-94.856c-1.811,0-3.279-1.468-3.279-3.28C180.602,236.354,182.07,234.885,183.881,234.885z M183.881,249.199h94.856c1.812,0,3.28,1.468,3.28,3.28c0,1.811-1.469,3.28-3.28,3.28h-94.856c-1.811,0-3.279-1.469-3.279-3.28 C180.602,250.667,182.07,249.199,183.881,249.199z M183.881,263.514h94.856c1.812,0,3.28,1.468,3.28,3.279 c0,1.813-1.469,3.28-3.28,3.28h-94.856c-1.811,0-3.279-1.468-3.279-3.28C180.602,264.981,182.07,263.514,183.881,263.514z M180.602,281.105c0-1.811,1.469-3.279,3.279-3.279h47.449c1.811,0,3.28,1.469,3.28,3.279c0,1.813-1.469,3.28-3.28,3.28h-47.449 C182.07,284.386,180.602,282.918,180.602,281.105z"/> <path d="M127.332,329.723c0.072-0.009,0.142-0.021,0.213-0.029v-23.207c-2.088,0.112-4.168,0.381-6.227,0.776L127.332,329.723z"/> <path d="M104.144,391.146l11.626-20.129c-3.015-2.371-5.444-5.492-7.004-9.13l-22.434,6.029 C89.658,377.576,96.014,385.642,104.144,391.146z"/> <path d="M127.545,369.225v-5.479l-2.771,4.797C125.671,368.845,126.595,369.08,127.545,369.225z"/> <path d="M91.769,326.81l20.097,11.616c2.414-3.084,5.537-5.472,9.135-6.987l-6.019-22.48 C105.218,312.333,97.223,318.732,91.769,326.81z"/> <path d="M341.459,161.857l-8.775,5.075c4.895,7.534,11.328,13.972,18.855,18.871l5.053-8.8c0.902-1.571,2.907-2.113,4.477-1.211 c1.571,0.902,2.113,2.906,1.211,4.478l-5.065,8.823c8.718,4.474,18.583,7.017,29.036,7.017c10.439,0,20.294-2.536,29.004-7 l-5.075-8.839c-0.902-1.571-0.359-3.575,1.211-4.478c1.569-0.901,3.575-0.361,4.478,1.211l5.063,8.819 c7.542-4.902,13.987-11.35,18.889-18.895l-8.818-5.064c-1.57-0.902-2.113-2.907-1.211-4.478c0.902-1.571,2.907-2.113,4.478-1.21 l8.837,5.074c3.997-7.803,6.454-16.522,6.922-25.761h-10.195c-1.812,0-3.28-1.469-3.28-3.28c0-1.812,1.469-3.28,3.28-3.28h10.195 c-0.468-9.213-2.919-17.908-6.903-25.692l-8.855,5.083c-0.516,0.295-1.076,0.436-1.631,0.436c-1.135,0-2.24-0.591-2.847-1.648 c-0.902-1.57-0.359-3.575,1.212-4.477l8.836-5.072c-4.898-7.539-11.339-13.981-18.879-18.881l-5.096,8.821 c-0.608,1.051-1.71,1.639-2.843,1.639c-0.558,0-1.121-0.142-1.638-0.44c-1.569-0.906-2.106-2.912-1.199-4.48l5.1-8.826 c-7.801-3.998-16.516-6.454-25.754-6.923v3.454v6.742c0,1.811-1.469,3.28-3.279,3.28s-3.279-1.469-3.279-3.28v-6.742v-3.454 c-9.25,0.469-17.977,2.932-25.785,6.938l5.091,8.81c0.905,1.568,0.368,3.574-1.2,4.48c-0.517,0.298-1.08,0.44-1.637,0.44 c-1.134,0-2.236-0.587-2.844-1.639l-5.085-8.802c-7.525,4.896-13.954,11.329-18.845,18.856l8.793,5.082 c1.568,0.907,2.104,2.913,1.199,4.481c-0.608,1.051-1.71,1.639-2.843,1.639c-0.558,0-1.122-0.142-1.638-0.441l-8.797-5.083 c-3.988,7.785-6.439,16.481-6.907,25.698h10.188c1.811,0,3.279,1.468,3.279,3.28c0,1.811-1.469,3.28-3.279,3.28h-10.188 c0.468,9.242,2.925,17.962,6.925,25.768l8.777-5.076c1.57-0.907,3.574-0.369,4.482,1.198 C343.563,158.945,343.027,160.952,341.459,161.857z M351.468,107.755c1.083-1.452,3.138-1.751,4.589-0.669l25.204,18.796 c1.376-1.076,3.106-1.724,4.989-1.724c1.743,0,3.355,0.558,4.678,1.495l17.967-10.583c1.559-0.919,3.571-0.4,4.49,1.162 c0.92,1.56,0.4,3.571-1.16,4.49l-17.944,10.571c0.034,0.301,0.056,0.606,0.056,0.916c0,4.557-3.552,8.126-8.086,8.126 c-4.538,0-8.094-3.57-8.094-8.126c0-0.149,0.014-0.294,0.022-0.442l-26.042-19.422 C350.684,111.262,350.385,109.206,351.468,107.755z"/> <path d="M112.185,287.719c0.21,0.181,0.419,0.36,0.626,0.54c0.113-0.331,0.229-0.665,0.346-1.002 c1.68-4.851,3.771-10.889,2.803-14.453c-0.985-3.712-4.077-6.393-7.356-6.393c-0.527,0-1.051,0.071-1.56,0.212 c-1.618,0.424-2.979,1.495-3.874,3.03c-1.13,1.938-1.42,4.399-0.796,6.751C103.335,280.089,108.242,284.319,112.185,287.719z"/> <path d="M386.25,133.775c0.885,0,1.527-0.659,1.527-1.567c0-0.227-0.049-0.437-0.135-0.625c-0.029-0.046-0.064-0.087-0.092-0.134 c-0.022-0.038-0.033-0.079-0.054-0.117c-0.272-0.375-0.72-0.614-1.247-0.614c-0.619,0-1.124,0.324-1.37,0.812 c-0.034,0.094-0.062,0.19-0.106,0.282c-0.034,0.126-0.059,0.257-0.059,0.397C384.715,133.116,385.361,133.775,386.25,133.775z"/> <rect height="42.595" width="14.344" x="413.537" y="359.443"/> <path d="M304.97,143.174c0.002,0.013,0.007,0.024,0.009,0.038c5.064,37.958,36.051,67.171,73.594,70.711 c0.064,0.005,0.129,0.011,0.193,0.017c1.185,0.109,2.375,0.192,3.571,0.249c0.099,0.004,0.198,0.007,0.296,0.012 c1.2,0.053,2.406,0.084,3.617,0.084c0.908,0,1.82-0.019,2.733-0.05c0.09-0.004,0.179-0.007,0.271-0.011 c6.639-0.257,13.383-1.361,20.094-3.294c0.088-0.025,0.177-0.026,0.266-0.045c33.866-10.094,58.633-41.542,58.633-78.677 c0-45.215-36.783-82-81.996-82c-38.561,0-70.986,26.733-79.719,62.629c-0.012,0.078-0.01,0.156-0.029,0.232 c-0.939,3.843-1.59,7.771-1.952,11.743c-0.007,0.089-0.016,0.177-0.022,0.266c-0.059,0.65-0.105,1.303-0.146,1.957 c-0.011,0.168-0.022,0.336-0.033,0.506c-0.033,0.598-0.059,1.197-0.079,1.796c-0.007,0.188-0.017,0.376-0.021,0.564 c-0.022,0.768-0.035,1.538-0.035,2.307c0,3.413,0.236,6.904,0.721,10.662C304.958,142.967,304.955,143.074,304.97,143.174z M386.25,61.825c38.829,0,70.42,31.573,70.42,70.383c0,38.852-31.591,70.46-70.42,70.46c-12.74,0-24.689-3.42-35.012-9.365 c-0.059-0.029-0.117-0.053-0.174-0.086c-0.041-0.022-0.07-0.053-0.108-0.077c-20.981-12.214-35.126-34.944-35.126-60.933 C315.83,93.398,347.42,61.825,386.25,61.825z"/> <path d="M52.233,366.661c-0.787,0-1.49,0.081-2.088,0.243c-4.393,1.185-7.172,5.204-6.194,8.958 c0.81,2.954,3.758,4.965,7.327,4.965c0.833,0,1.673-0.113,2.498-0.336c3.669-0.997,7.94-5.974,11.372-9.972 c0.14-0.163,0.279-0.325,0.417-0.486c-0.438-0.148-0.882-0.3-1.33-0.452C60.228,368.212,55.687,366.661,52.233,366.661z"/> <polygon points="410.257,408.598 404.186,408.598 404.186,438.769 410.257,438.769 458.101,438.769 458.101,408.598 431.16,408.598 "/> <path d="M366.038,264.194v-30.249h-53.874v30.249h23.66v-5.732c0-1.811,1.469-3.279,3.279-3.279c1.812,0,3.28,1.468,3.28,3.279 v5.732H366.038z"/> <polygon points="308.884,402.038 335.824,402.038 335.824,359.443 250.363,359.443 250.363,402.038 277.303,402.038 "/> <polygon points="220.102,408.598 220.102,438.769 274.022,438.769 274.022,408.598 247.083,408.598 "/> <path d="M366.038,408.598h-23.654v15.122c0,1.812-1.469,3.28-3.28,3.28c-1.811,0-3.279-1.469-3.279-3.28v-15.122h-23.66v30.171 h53.874V408.598z"/> <path d="M319.663,310.04c0,9.601,7.001,17.577,16.161,19.144v-13.918c0-1.812,1.469-3.279,3.279-3.279 c1.812,0,3.28,1.468,3.28,3.279v13.918c9.161-1.566,16.162-9.543,16.162-19.144c0-10.722-8.722-19.443-19.442-19.443 C328.385,290.597,319.663,299.318,319.663,310.04z"/> <polygon points="400.906,402.038 406.977,402.038 406.977,359.443 342.384,359.443 342.384,402.038 369.318,402.038 "/> </g> </g> <g id="Layer_1"/> </g>
</svg>